<?xml version="1.0" standalone="no"?>
<!DOCTYPE svg PUBLIC "-//W3C//DTD SVG 20010904//EN"
 "http://www.w3.org/TR/2001/REC-SVG-20010904/DTD/svg10.dtd">
<svg version="1.0" xmlns="http://www.w3.org/2000/svg"
 width="500.000000pt" height="500.000000pt" viewBox="0 0 500.000000 500.000000"
 preserveAspectRatio="xMidYMid meet">

<g transform="translate(0.000000,500.000000) scale(0.100000,-0.100000)"
fill="#000000" stroke="none">
<path d="M2349 3809 c-8 -16 -8 -28 0 -45 10 -24 13 -24 149 -24 145 0 162 5
162 45 0 40 -17 45 -162 45 -130 0 -138 -1 -149 -21z"/>
<path d="M2076 3614 c-21 -21 -20 -47 2 -67 15 -14 41 -17 140 -17 130 0 152
-8 152 -54 0 -44 -11 -46 -266 -46 -134 0 -254 -4 -267 -9 -30 -12 -39 -43
-20 -70 13 -19 24 -21 126 -21 86 0 118 -4 135 -16 28 -20 30 -69 3 -84 -12
-6 -119 -10 -278 -10 -277 0 -283 -1 -283 -50 0 -48 10 -50 231 -50 224 0 239
-3 239 -54 0 -43 -13 -46 -221 -46 -109 0 -209 -4 -223 -10 -19 -7 -26 -17
-26 -37 0 -59 -4 -58 287 -61 171 -2 272 -7 280 -14 16 -13 17 -60 1 -76 -8
-8 -53 -12 -135 -12 -120 0 -123 -1 -139 -25 -15 -23 -15 -27 0 -50 l16 -25
255 0 c274 0 285 -2 285 -54 0 -47 -26 -56 -161 -56 -84 0 -129 -4 -137 -12
-20 -20 -14 -56 12 -73 20 -14 76 -15 429 -13 294 2 409 6 418 15 13 13 16 60
4 71 -3 4 -65 9 -137 12 -128 5 -131 6 -151 32 -19 25 -19 28 -3 52 l16 26
255 0 c217 0 256 2 269 16 9 8 16 24 16 34 0 42 -25 50 -149 50 -106 0 -120 2
-136 20 -15 16 -17 26 -9 48 l9 27 271 5 c293 5 308 8 302 59 -5 45 -35 51
-250 51 -192 0 -197 1 -212 22 -20 29 -20 34 4 58 19 19 33 20 223 20 185 0
205 2 220 18 21 23 22 46 1 66 -13 14 -53 16 -278 16 -248 0 -264 1 -281 20
-23 26 -13 68 21 80 14 6 74 10 133 10 113 0 131 6 131 46 0 50 -24 54 -292
54 l-248 0 -16 25 c-15 23 -15 27 0 50 16 24 19 25 141 25 112 0 127 2 145 20
24 24 24 29 4 58 l-15 22 -414 0 c-363 0 -416 -2 -429 -16z m589 -213 c150
-74 237 -242 205 -397 -25 -122 -98 -217 -208 -271 -51 -25 -67 -28 -162 -28
-91 0 -112 3 -155 24 -252 124 -290 466 -70 633 112 85 265 100 390 39z"/>
<path d="M2449 3350 c-88 -15 -164 -71 -207 -154 -35 -67 -38 -177 -6 -247 60
-130 207 -196 345 -156 133 39 225 178 205 311 l-7 47 -35 -30 c-40 -36 -71
-46 -118 -37 -69 13 -123 97 -109 168 3 16 19 43 35 60 16 17 27 32 26 33 -10
9 -90 12 -129 5z"/>
<path d="M2356 2378 c-20 -28 -20 -43 0 -62 12 -13 40 -16 140 -16 136 0 164
8 164 45 0 48 -20 55 -160 55 -122 0 -130 -1 -144 -22z"/>
<path d="M1654 1967 c-3 -8 -4 -52 -2 -98 l3 -84 39 -3 c63 -5 122 64 81 98
-9 8 -12 22 -8 41 3 17 0 35 -7 44 -16 19 -99 21 -106 2z m92 -18 c23 -19 16
-36 -17 -48 -50 -17 -57 -14 -61 30 l-4 41 34 -6 c19 -3 40 -10 48 -17z m5
-79 c44 -24 11 -70 -50 -70 -29 0 -31 2 -31 40 0 38 2 40 31 40 17 0 39 -5 50
-10z"/>
<path d="M1846 1923 c-3 -32 -2 -76 2 -98 7 -39 8 -40 55 -43 26 -2 55 2 64 7
14 8 3 10 -46 11 -53 0 -62 2 -57 16 3 9 6 24 6 35 0 16 7 19 44 19 25 0 48 5
51 10 4 6 -13 10 -44 10 -42 0 -51 3 -51 18 0 9 -3 26 -6 37 -5 19 -1 20 50
17 36 -3 56 0 56 7 0 7 -23 11 -59 11 l-59 0 -6 -57z"/>
<path d="M2182 1963 c-11 -21 -37 -105 -47 -148 -11 -53 13 -14 39 60 l23 70
8 -44 c7 -45 27 -100 41 -113 13 -13 35 30 48 95 l13 62 22 -67 c22 -65 41
-95 41 -65 0 8 -11 48 -25 89 -14 40 -25 74 -25 76 0 1 -4 2 -9 2 -12 0 -39
-71 -50 -130 -8 -44 -8 -44 -15 -15 -15 68 -37 135 -46 140 -5 3 -13 -2 -18
-12z"/>
<path d="M2430 1943 c12 -21 28 -42 36 -46 10 -6 12 -19 8 -46 -3 -22 -2 -47
4 -57 8 -15 11 -13 17 14 3 17 4 41 0 52 -5 15 2 31 24 56 17 19 31 42 31 52
-1 15 -3 14 -18 -4 -9 -11 -24 -30 -32 -43 l-16 -23 -28 41 c-36 51 -56 54
-26 4z"/>
<path d="M2707 1923 c-3 -32 -3 -76 1 -98 7 -39 8 -40 55 -43 26 -2 55 2 64 7
14 8 3 10 -46 11 -53 0 -62 2 -57 16 3 9 6 24 6 35 0 16 7 19 44 19 25 0 48 5
51 10 4 6 -13 10 -44 10 -42 0 -51 3 -51 18 0 9 -3 26 -6 37 -5 18 -1 20 46
16 29 -2 57 2 63 8 8 8 -7 11 -55 11 l-65 0 -6 -57z"/>
<path d="M2890 1977 c0 -14 28 -63 44 -76 11 -9 16 -30 16 -62 0 -27 5 -49 10
-49 6 0 10 20 10 45 0 34 7 55 30 87 17 22 30 46 30 52 -1 12 -54 -43 -63 -65
-5 -11 -8 -10 -17 4 -18 28 -59 73 -60 64z"/>
<path d="M3086 1949 c-3 -17 -6 -48 -6 -69 0 -21 3 -52 6 -69 6 -30 8 -31 60
-31 29 0 56 5 59 10 4 6 -15 10 -49 10 -58 0 -62 3 -50 48 5 18 13 22 50 22
23 0 46 5 49 10 4 6 -13 10 -43 10 -43 0 -50 3 -56 23 -13 48 -9 52 40 48 25
-2 51 2 57 8 8 8 -5 11 -50 11 -60 0 -61 0 -67 -31z"/>
</g>
</svg>
